<svg width="234" height="61" viewBox="0 0 234 61" fill="none" xmlns="http://www.w3.org/2000/svg">
<rect width="234" height="61" fill="#111111"/>
<path d="M68.216 38V26.32H70.104L71.32 30.096C71.4373 30.4373 71.544 30.7787 71.64 31.12C71.736 31.4507 71.8053 31.7067 71.848 31.888C71.9013 31.7067 71.9707 31.4507 72.056 31.12C72.1413 30.7787 72.2373 30.432 72.344 30.08L73.496 26.32H75.384V38H73.976V33.76C73.976 33.2907 73.992 32.7573 74.024 32.16C74.056 31.5627 74.0987 30.9547 74.152 30.336C74.2053 29.7067 74.2587 29.1093 74.312 28.544C74.376 27.968 74.4293 27.4667 74.472 27.04L72.584 32.88H71.064L69.16 27.04C69.2133 27.456 69.2667 27.9413 69.32 28.496C69.3733 29.04 69.4213 29.6213 69.464 30.24C69.5067 30.848 69.544 31.456 69.576 32.064C69.608 32.672 69.624 33.2373 69.624 33.76V38H68.216ZM78.1938 38V26.32H84.9138V27.632H79.6178V31.248H84.3538V32.544H79.6178V36.688H84.9138V38H78.1938ZM90.9875 38.16C89.8995 38.16 89.0675 37.8613 88.4915 37.264C87.9155 36.656 87.6275 35.8347 87.6275 34.8V26.32H89.0675V34.8C89.0675 35.44 89.2222 35.9467 89.5315 36.32C89.8515 36.6933 90.3368 36.88 90.9875 36.88C91.6275 36.88 92.1075 36.6933 92.4275 36.32C92.7475 35.9467 92.9075 35.44 92.9075 34.8V26.32H94.3475V34.8C94.3475 35.8453 94.0595 36.6667 93.4835 37.264C92.9182 37.8613 92.0862 38.16 90.9875 38.16ZM106.847 38V26.32H110.607C111.332 26.32 111.962 26.464 112.495 26.752C113.028 27.0293 113.439 27.424 113.727 27.936C114.026 28.448 114.175 29.056 114.175 29.76C114.175 30.4533 114.026 31.0613 113.727 31.584C113.439 32.096 113.028 32.496 112.495 32.784C111.962 33.0613 111.332 33.2 110.607 33.2H108.287V38H106.847ZM108.287 31.904H110.607C111.236 31.904 111.738 31.712 112.111 31.328C112.495 30.9333 112.687 30.4107 112.687 29.76C112.687 29.0987 112.495 28.576 112.111 28.192C111.738 27.808 111.236 27.616 110.607 27.616H108.287V31.904ZM119.769 38.16C119.065 38.16 118.457 38.0267 117.945 37.76C117.443 37.4933 117.054 37.1093 116.777 36.608C116.51 36.096 116.377 35.4933 116.377 34.8V29.52C116.377 28.816 116.51 28.2133 116.777 27.712C117.054 27.2107 117.443 26.8267 117.945 26.56C118.457 26.2933 119.065 26.16 119.769 26.16C120.473 26.16 121.075 26.2933 121.577 26.56C122.089 26.8267 122.478 27.2107 122.745 27.712C123.022 28.2133 123.161 28.8107 123.161 29.504V34.8C123.161 35.4933 123.022 36.096 122.745 36.608C122.478 37.1093 122.089 37.4933 121.577 37.76C121.075 38.0267 120.473 38.16 119.769 38.16ZM119.769 36.864C120.398 36.864 120.878 36.688 121.209 36.336C121.55 35.9733 121.721 35.4613 121.721 34.8V29.52C121.721 28.8587 121.55 28.352 121.209 28C120.878 27.6373 120.398 27.456 119.769 27.456C119.15 27.456 118.67 27.6373 118.329 28C117.987 28.352 117.817 28.8587 117.817 29.52V34.8C117.817 35.4613 117.987 35.9733 118.329 36.336C118.67 36.688 119.15 36.864 119.769 36.864ZM126.035 38V26.32H129.651C130.344 26.32 130.952 26.464 131.475 26.752C131.997 27.0293 132.403 27.4187 132.691 27.92C132.979 28.4213 133.123 29.008 133.123 29.68C133.123 30.4693 132.915 31.1467 132.499 31.712C132.093 32.2773 131.539 32.6667 130.835 32.88L133.283 38H131.587L129.347 33.04H127.475V38H126.035ZM127.475 31.744H129.651C130.248 31.744 130.728 31.5573 131.091 31.184C131.453 30.8 131.635 30.2987 131.635 29.68C131.635 29.0507 131.453 28.5493 131.091 28.176C130.728 27.8027 130.248 27.616 129.651 27.616H127.475V31.744ZM138.236 38V27.616H135.036V26.304H142.876V27.616H139.676V38H138.236ZM145.27 38V26.304H152.15V27.616H146.678V31.504H151.734V32.816H146.71V38H145.27ZM158.144 38.16C157.44 38.16 156.832 38.0267 156.32 37.76C155.818 37.4933 155.429 37.1093 155.152 36.608C154.885 36.096 154.752 35.4933 154.752 34.8V29.52C154.752 28.816 154.885 28.2133 155.152 27.712C155.429 27.2107 155.818 26.8267 156.32 26.56C156.832 26.2933 157.44 26.16 158.144 26.16C158.848 26.16 159.45 26.2933 159.952 26.56C160.464 26.8267 160.853 27.2107 161.12 27.712C161.397 28.2133 161.536 28.8107 161.536 29.504V34.8C161.536 35.4933 161.397 36.096 161.12 36.608C160.853 37.1093 160.464 37.4933 159.952 37.76C159.45 38.0267 158.848 38.16 158.144 38.16ZM158.144 36.864C158.773 36.864 159.253 36.688 159.584 36.336C159.925 35.9733 160.096 35.4613 160.096 34.8V29.52C160.096 28.8587 159.925 28.352 159.584 28C159.253 27.6373 158.773 27.456 158.144 27.456C157.525 27.456 157.045 27.6373 156.704 28C156.362 28.352 156.192 28.8587 156.192 29.52V34.8C156.192 35.4613 156.362 35.9733 156.704 36.336C157.045 36.688 157.525 36.864 158.144 36.864ZM157.216 25.04L158.912 22.8H160.464L158.688 25.04H157.216ZM164.778 38V26.32H166.218V36.688H171.498V38H164.778ZM174.211 38V36.688H176.595V27.632H174.211V26.32H180.451V27.632H178.067V36.688H180.451V38H174.211ZM186.925 38.16C186.221 38.16 185.613 38.0267 185.101 37.76C184.6 37.4933 184.21 37.1093 183.933 36.608C183.666 36.096 183.533 35.4933 183.533 34.8V29.52C183.533 28.816 183.666 28.2133 183.933 27.712C184.21 27.2107 184.6 26.8267 185.101 26.56C185.613 26.2933 186.221 26.16 186.925 26.16C187.629 26.16 188.232 26.2933 188.733 26.56C189.245 26.8267 189.634 27.2107 189.901 27.712C190.178 28.2133 190.317 28.8107 190.317 29.504V34.8C190.317 35.4933 190.178 36.096 189.901 36.608C189.634 37.1093 189.245 37.4933 188.733 37.76C188.232 38.0267 187.629 38.16 186.925 38.16ZM186.925 36.864C187.554 36.864 188.034 36.688 188.365 36.336C188.706 35.9733 188.877 35.4613 188.877 34.8V29.52C188.877 28.8587 188.706 28.352 188.365 28C188.034 27.6373 187.554 27.456 186.925 27.456C186.306 27.456 185.826 27.6373 185.485 28C185.144 28.352 184.973 28.8587 184.973 29.52V34.8C184.973 35.4613 185.144 35.9733 185.485 36.336C185.826 36.688 186.306 36.864 186.925 36.864Z" fill="white"/>
<path d="M39.7125 29.6125L42.8 46H53.25L55.8625 29.6125H39.7125Z" fill="#ECECEC"/>
<rect x="40.9" y="23.675" width="14.25" height="1.9" fill="#121212"/>
<path d="M51.35 12.75C53.725 19.4 46.125 19.1625 48.2625 25.1C45.65 22.725 45.942 20.5413 47.075 18.925C48.2277 17.2806 50.2721 15.9838 51.35 12.75Z" fill="#EBEBEB"/>
<path d="M48.8564 8C51.2314 14.65 43.6313 14.4125 45.7688 20.35C43.1564 17.975 43.4483 15.7913 44.5814 14.175C45.7341 12.5306 47.7784 11.2338 48.8564 8Z" fill="#F3F3F3"/>
<rect x="39" y="26.525" width="18.05" height="1.9" fill="#F2F2F2"/>
</svg>
