<svg width="234" height="61" viewBox="0 0 234 61" fill="none" xmlns="http://www.w3.org/2000/svg">
<rect width="234" height="61" fill="#111111"/>
<path d="M78.744 38L77.4 26.32H78.776L79.656 34.96C79.6773 35.1947 79.6987 35.44 79.72 35.696C79.7413 35.9413 79.7573 36.176 79.768 36.4C79.7893 36.624 79.8 36.8107 79.8 36.96C79.8213 36.8107 79.8373 36.624 79.848 36.4C79.8693 36.176 79.8907 35.9413 79.912 35.696C79.944 35.44 79.976 35.1947 80.008 34.96L81.096 26.32H82.584L83.576 34.96C83.608 35.1947 83.6347 35.44 83.656 35.696C83.688 35.9413 83.7147 36.176 83.736 36.4C83.768 36.624 83.7893 36.8107 83.8 36.96C83.8107 36.8107 83.8213 36.624 83.832 36.4C83.8533 36.176 83.8747 35.9413 83.896 35.696C83.928 35.44 83.9547 35.1947 83.976 34.96L84.888 26.32H86.2L84.824 38H83.016L82.024 29.2C82.0027 28.9547 81.976 28.7147 81.944 28.48C81.9227 28.2453 81.9013 28.0267 81.88 27.824C81.8587 27.6213 81.8427 27.456 81.832 27.328C81.8213 27.456 81.8 27.6213 81.768 27.824C81.7467 28.0267 81.7253 28.2453 81.704 28.48C81.6827 28.7147 81.656 28.9547 81.624 29.2L80.552 38H78.744ZM88.1938 38V26.32H94.9138V27.632H89.6178V31.248H94.3538V32.544H89.6178V36.688H94.9138V38H88.1938ZM97.6755 38V26.32H100.988C102.054 26.32 102.886 26.5867 103.484 27.12C104.092 27.6533 104.396 28.3947 104.396 29.344C104.396 29.8773 104.284 30.3413 104.06 30.736C103.836 31.1307 103.516 31.4347 103.1 31.648C102.694 31.8613 102.204 31.9627 101.628 31.952V31.712C102.246 31.7013 102.78 31.8187 103.228 32.064C103.686 32.3093 104.038 32.6613 104.284 33.12C104.54 33.5787 104.668 34.1227 104.668 34.752C104.668 35.4133 104.529 35.9893 104.252 36.48C103.974 36.9707 103.58 37.3493 103.068 37.616C102.556 37.872 101.942 38 101.228 38H97.6755ZM99.0835 36.704H101.068C101.74 36.704 102.268 36.528 102.652 36.176C103.046 35.8133 103.244 35.3227 103.244 34.704C103.244 34.064 103.046 33.5467 102.652 33.152C102.268 32.7467 101.74 32.544 101.068 32.544H99.0835V36.704ZM99.0835 31.296H100.972C101.59 31.296 102.076 31.1307 102.428 30.8C102.79 30.4693 102.972 30.0213 102.972 29.456C102.972 28.8907 102.796 28.4427 102.444 28.112C102.092 27.7813 101.606 27.616 100.988 27.616H99.0835V31.296ZM116.847 38V26.32H120.607C121.332 26.32 121.962 26.464 122.495 26.752C123.028 27.0293 123.439 27.424 123.727 27.936C124.026 28.448 124.175 29.056 124.175 29.76C124.175 30.4533 124.026 31.0613 123.727 31.584C123.439 32.096 123.028 32.496 122.495 32.784C121.962 33.0613 121.332 33.2 120.607 33.2H118.287V38H116.847ZM118.287 31.904H120.607C121.236 31.904 121.738 31.712 122.111 31.328C122.495 30.9333 122.687 30.4107 122.687 29.76C122.687 29.0987 122.495 28.576 122.111 28.192C121.738 27.808 121.236 27.616 120.607 27.616H118.287V31.904ZM129.769 38.16C129.065 38.16 128.457 38.0267 127.945 37.76C127.443 37.4933 127.054 37.1093 126.777 36.608C126.51 36.096 126.377 35.4933 126.377 34.8V29.52C126.377 28.816 126.51 28.2133 126.777 27.712C127.054 27.2107 127.443 26.8267 127.945 26.56C128.457 26.2933 129.065 26.16 129.769 26.16C130.473 26.16 131.075 26.2933 131.577 26.56C132.089 26.8267 132.478 27.2107 132.745 27.712C133.022 28.2133 133.161 28.8107 133.161 29.504V34.8C133.161 35.4933 133.022 36.096 132.745 36.608C132.478 37.1093 132.089 37.4933 131.577 37.76C131.075 38.0267 130.473 38.16 129.769 38.16ZM129.769 36.864C130.398 36.864 130.878 36.688 131.209 36.336C131.55 35.9733 131.721 35.4613 131.721 34.8V29.52C131.721 28.8587 131.55 28.352 131.209 28C130.878 27.6373 130.398 27.456 129.769 27.456C129.15 27.456 128.67 27.6373 128.329 28C127.987 28.352 127.817 28.8587 127.817 29.52V34.8C127.817 35.4613 127.987 35.9733 128.329 36.336C128.67 36.688 129.15 36.864 129.769 36.864ZM136.035 38V26.32H139.651C140.344 26.32 140.952 26.464 141.475 26.752C141.997 27.0293 142.403 27.4187 142.691 27.92C142.979 28.4213 143.123 29.008 143.123 29.68C143.123 30.4693 142.915 31.1467 142.499 31.712C142.093 32.2773 141.539 32.6667 140.835 32.88L143.283 38H141.587L139.347 33.04H137.475V38H136.035ZM137.475 31.744H139.651C140.248 31.744 140.728 31.5573 141.091 31.184C141.453 30.8 141.635 30.2987 141.635 29.68C141.635 29.0507 141.453 28.5493 141.091 28.176C140.728 27.8027 140.248 27.616 139.651 27.616H137.475V31.744ZM148.236 38V27.616H145.036V26.304H152.876V27.616H149.676V38H148.236ZM155.27 38V26.304H162.15V27.616H156.678V31.504H161.734V32.816H156.71V38H155.27ZM168.144 38.16C167.44 38.16 166.832 38.0267 166.32 37.76C165.818 37.4933 165.429 37.1093 165.152 36.608C164.885 36.096 164.752 35.4933 164.752 34.8V29.52C164.752 28.816 164.885 28.2133 165.152 27.712C165.429 27.2107 165.818 26.8267 166.32 26.56C166.832 26.2933 167.44 26.16 168.144 26.16C168.848 26.16 169.45 26.2933 169.952 26.56C170.464 26.8267 170.853 27.2107 171.12 27.712C171.397 28.2133 171.536 28.8107 171.536 29.504V34.8C171.536 35.4933 171.397 36.096 171.12 36.608C170.853 37.1093 170.464 37.4933 169.952 37.76C169.45 38.0267 168.848 38.16 168.144 38.16ZM168.144 36.864C168.773 36.864 169.253 36.688 169.584 36.336C169.925 35.9733 170.096 35.4613 170.096 34.8V29.52C170.096 28.8587 169.925 28.352 169.584 28C169.253 27.6373 168.773 27.456 168.144 27.456C167.525 27.456 167.045 27.6373 166.704 28C166.362 28.352 166.192 28.8587 166.192 29.52V34.8C166.192 35.4613 166.362 35.9733 166.704 36.336C167.045 36.688 167.525 36.864 168.144 36.864ZM174.778 38V26.32H176.218V36.688H181.498V38H174.778ZM184.211 38V36.688H186.595V27.632H184.211V26.32H190.451V27.632H188.067V36.688H190.451V38H184.211ZM196.925 38.16C196.221 38.16 195.613 38.0267 195.101 37.76C194.6 37.4933 194.21 37.1093 193.933 36.608C193.666 36.096 193.533 35.4933 193.533 34.8V29.52C193.533 28.816 193.666 28.2133 193.933 27.712C194.21 27.2107 194.6 26.8267 195.101 26.56C195.613 26.2933 196.221 26.16 196.925 26.16C197.629 26.16 198.232 26.2933 198.733 26.56C199.245 26.8267 199.634 27.2107 199.901 27.712C200.178 28.2133 200.317 28.8107 200.317 29.504V34.8C200.317 35.4933 200.178 36.096 199.901 36.608C199.634 37.1093 199.245 37.4933 198.733 37.76C198.232 38.0267 197.629 38.16 196.925 38.16ZM196.925 36.864C197.554 36.864 198.034 36.688 198.365 36.336C198.706 35.9733 198.877 35.4613 198.877 34.8V29.52C198.877 28.8587 198.706 28.352 198.365 28C198.034 27.6373 197.554 27.456 196.925 27.456C196.306 27.456 195.826 27.6373 195.485 28C195.144 28.352 194.973 28.8587 194.973 29.52V34.8C194.973 35.4613 195.144 35.9733 195.485 36.336C195.826 36.688 196.306 36.864 196.925 36.864Z" fill="white"/>
<path d="M39.7124 29.6125L42.7999 46H53.2499L55.8624 29.6125H39.7124Z" fill="#ECECEC"/>
<rect x="40.8999" y="23.675" width="14.25" height="1.9" fill="#121212"/>
<path d="M51.35 12.75C53.725 19.4 46.125 19.1625 48.2625 25.1C45.65 22.725 45.942 20.5413 47.075 18.925C48.2277 17.2806 50.2721 15.9838 51.35 12.75Z" fill="#EBEBEB"/>
<path d="M48.8564 8C51.2314 14.65 43.6313 14.4125 45.7688 20.35C43.1564 17.975 43.4483 15.7913 44.5814 14.175C45.7341 12.5306 47.7784 11.2338 48.8564 8Z" fill="#F3F3F3"/>
<rect x="39" y="26.525" width="18.05" height="1.9" fill="#F2F2F2"/>
</svg>
